# xmcd
#
# Track frame offsets: 
#        150
#        28898
#        46836
#        58628
#        74303
#        90437
#        111719
#        129494
#        144637
#        165108
#        181880
#        200842
#        220478
#        239945
#        258537
#        280779
#        300793
#        324096
#
# Disc length: 4581 seconds
#
# Revision: 0
# Processed by: cddbd v1.5.2PL0 Copyright (c) Steve Scherf et al.
# Submitted via: ExactAudioCopy v0.95a5
#
DISCID=0a11e312
DTITLE=Albi Hefele - LE Bigband - Christmas Live
DYEAR=2016
DGENRE=Big Band
TTITLE0=01 Yo Tannenbaum
TTITLE1=02 Rudolf, the Red-NosedReindeer
TTITLE2=03 Jingle Bells
TTITLE3=04 Mary Did You Know
TTITLE4=05 The Happy Elf
TTITLE5=06 My Grown Up Christmas List
TTITLE6=07 Oh Holy Night
TTITLE7=08 All I Want For Christmas
TTITLE8=09 White Chrsitmas
TTITLE9=10 Baby, It's Cold Outside
TTITLE10=11 Angels We Have Heard on High
TTITLE11=12 Please Come Home for Christmas
TTITLE12=13 Mahalia Jackson Medley
TTITLE13=14 River
TTITLE14=15 Let It Show
TTITLE15=16 Last Christmas
TTITLE16=17 Merry Christmas Baby
TTITLE17=18 Oh Come All Ye Kiddies
EXTD=
EXTT0=
EXTT1=
EXTT2=
EXTT3=
EXTT4=
EXTT5=
EXTT6=
EXTT7=
EXTT8=
EXTT9=
EXTT10=
EXTT11=
EXTT12=
EXTT13=
EXTT14=
EXTT15=
EXTT16=
EXTT17=
PLAYORDER=
